<svg xmlns="http://www.w3.org/2000/svg" width="512" height="512" viewBox="0 0 512 512">
  <rect width="512" height="512" fill="#4F46E5" rx="128" />
  <g transform="translate(106, 106) scale(0.6)">
    <path d="M360 176h-16c-13.3 0-24-10.7-24-24V48c0-26.5 21.5-48 48-48h16c26.5 0 48 21.5 48 48v104c0 13.3-10.7 24-24 24zM224 352c0 26.5-21.5 48-48 48h-16c-26.5 0-48-21.5-48-48V86.6c0-11-9-19.9-19.9-19.9c-8.1 0-15.5 5-18.5 12.5C52.4 144.9 48 154.1 48 176c0 53 43 96 96 96h8c13.3 0 24 10.7 24 24v56c0 8.8-7.2 16-16 16h-8c-88.4 0-160-71.6-160-160c0-65 38.8-121 94.5-145.7C88.3 52.3 88 51.2 88 50c0-7.8 5.7-16 16-16c5.9 0 11 3.2 13.8 7.9C137.1 30.2 162 24 192 24c88.4 0 160 71.6 160 160v24c0 13.3-10.7 24-24 24h-8c-26.5 0-48-21.5-48-48V86.6c0-11-9-19.9-19.9-19.9c-8.1 0-15.5 5-18.5 12.5C212.4 144.9 208 154.1 208 176c0 53 43 96 96 96h8c13.3 0 24 10.7 24 24v56c0 8.8-7.2 16-16 16h-8c-26.5 0-48-21.5-48-48V256c0-8.8 7.2-16 16-16h24c8.8 0 16 7.2 16 16v32c0 35.3 28.7 64 64 64h8c8.8 0 16 7.2 16 16v32" fill="white" />
  </g>
</svg>
